<svg width="384" height="100" viewBox="0 0 384 100" fill="none" xmlns="http://www.w3.org/2000/svg">
<path d="M0.875 1.3125H36.6875C47.1458 1.3125 56.2292 2.4375 63.9375 4.6875C71.6458 6.9375 78.0208 10.1667 83.0625 14.375C88.1458 18.5417 91.9167 23.625 94.375 29.625C96.875 35.5833 98.125 42.2917 98.125 49.75C98.125 56.8333 96.8958 63.3958 94.4375 69.4375C91.9792 75.4375 88.2292 80.6458 83.1875 85.0625C78.1458 89.4375 71.7708 92.875 64.0625 95.375C56.3542 97.8333 47.2708 99.0625 36.8125 99.0625L0.875 99V1.3125ZM41.5625 81.875C47.4792 81.875 52.6667 81.125 57.125 79.625C61.5833 78.0833 65.2917 75.9167 68.25 73.125C71.25 70.3333 73.5 66.9583 75 63C76.5 59.0417 77.25 54.625 77.25 49.75C77.25 44.9583 76.5 40.6458 75 36.8125C73.5 32.9375 71.25 29.6667 68.25 27C65.2917 24.2917 61.5833 22.2083 57.125 20.75C52.6667 19.2917 47.4792 18.5625 41.5625 18.5625H20.6875V81.875H41.5625ZM162.938 29.625L172.312 18.1875H113.625V1.3125H209.188L154.5 70L144.75 82.125H206.125V99H108.812L162.938 29.625ZM221.188 81.625H243.375V20.8125C240.458 21.4792 237.646 22.3542 234.938 23.4375C232.271 24.5208 229.833 25.8333 227.625 27.375L217.875 13.4375C221.458 11.1875 225.104 9.29167 228.812 7.75C232.562 6.16667 236.333 4.91667 240.125 4C243.958 3.04167 247.792 2.35417 251.625 1.9375C255.5 1.52083 259.354 1.3125 263.188 1.3125L263.125 1.4375H263.188V81.625H284.375V99H221.188V81.625ZM299.5 82L333.938 58.375C339.104 54.8333 343.333 51.75 346.625 49.125C349.917 46.5 352.5 44.1667 354.375 42.125C356.25 40.0417 357.542 38.1667 358.25 36.5C358.958 34.8333 359.312 33.1667 359.312 31.5C359.312 29.5833 358.917 27.7917 358.125 26.125C357.333 24.4583 356.083 23 354.375 21.75C352.708 20.5 350.542 19.5208 347.875 18.8125C345.25 18.1042 342.104 17.75 338.438 17.75C333.104 17.75 327.792 18.5 322.5 20C317.208 21.5 311.812 23.8958 306.312 27.1875L297.188 12.1875C303.312 8.39583 309.938 5.4375 317.062 3.3125C324.229 1.1875 331.75 0.125 339.625 0.125C346.5 0.125 352.458 0.958333 357.5 2.625C362.583 4.25 366.771 6.47917 370.062 9.3125C373.396 12.1458 375.875 15.4375 377.5 19.1875C379.125 22.9375 379.938 26.9167 379.938 31.125C379.938 34.375 379.396 37.4792 378.312 40.4375C377.229 43.3958 375.333 46.4583 372.625 49.625C369.917 52.7917 366.25 56.2083 361.625 59.875C357.042 63.5 351.25 67.625 344.25 72.25L330 81.625H383.5V99H299.5V82Z" fill="white"/>
</svg>
